<svg width="236" height="52" viewBox="0 0 236 52" fill="none" xmlns="http://www.w3.org/2000/svg">
<path d="M95.4424 23.1258C95.7567 23.3027 96.1611 23.4084 96.6701 23.4084C97.7558 23.4084 98.5126 23.0409 99.0146 22.4719C99.5085 21.912 99.7336 21.1824 99.8177 20.4893C99.902 19.794 99.8474 19.1118 99.7603 18.6212C99.7169 18.3768 99.6641 18.1717 99.6125 18.032C99.5888 17.9678 99.5575 17.8948 99.5156 17.8401C99.5011 17.8213 99.4476 17.7519 99.3496 17.729C99.2887 17.7147 99.2214 17.7213 99.1612 17.7537C99.1072 17.7827 99.0759 17.8234 99.0593 17.8504C98.4288 18.8745 97.7591 19.6651 96.6701 19.6651C95.9892 19.6651 95.4576 19.8993 95.097 20.2684C94.7394 20.6343 94.5641 21.1184 94.5641 21.5972C94.5641 21.9547 94.6784 22.435 95.0394 22.8139C94.6292 23.0909 94.1383 23.2876 93.6969 23.2876V23.7706C94.3181 23.7706 94.9576 23.4814 95.4424 23.1258Z" fill="#007E4F"/>
<path d="M68.4714 36.619C68.7056 36.4425 68.8935 36.3008 69.0813 36.3008C69.3438 36.3008 69.5538 36.4799 69.5538 36.7357C69.5538 37.1195 69.1601 37.7079 68.6089 38.1684C67.9002 38.7823 66.8504 39.2684 65.6168 39.2684C64.3307 39.2684 63.3858 38.7567 62.7559 37.9125C62.231 37.2218 62.021 36.1729 62.021 34.8682C62.021 33.7758 62.0643 32.6712 62.1088 31.5342C62.156 30.3282 62.2047 29.0855 62.2047 27.7819C62.2047 27.6029 62.126 27.5261 61.9423 27.5261H60.2887C60.105 27.5261 60 27.4238 60 27.2191V26.4005C60 26.247 60.0787 26.1447 60.2625 26.0935C61.4173 25.7865 61.9947 25.4284 62.3097 24.9167C62.5747 24.4863 62.691 23.9292 62.8307 23.2605C62.857 23.1343 62.8842 23.0041 62.9134 22.8701C62.9659 22.6655 63.0446 22.5632 63.2546 22.5632H64.3307C64.5407 22.5632 64.6457 22.6655 64.6457 22.8446V25.5051C64.6457 25.9656 64.7506 26.0935 65.2231 26.0935C65.6168 26.0935 65.958 26.0935 66.5617 26.0423C66.6285 26.0361 66.6981 26.0296 66.7697 26.0228C67.2885 25.9737 67.9146 25.9144 68.3989 25.9144C68.9764 25.9144 69.2388 26.0423 69.2388 26.3749C69.2388 26.4537 69.2189 26.5519 69.1975 26.6576C69.1841 26.7235 69.1702 26.7922 69.1601 26.861C69.0551 27.475 68.7139 27.654 68.0315 27.654C67.7704 27.654 67.4774 27.6306 67.1611 27.6053C66.9049 27.5848 66.6336 27.5632 66.3517 27.5517C65.8268 27.5261 65.4068 27.5261 64.9344 27.5261C64.7244 27.5261 64.6194 27.6285 64.6194 27.8331C64.6194 27.9651 64.607 28.4882 64.592 29.119C64.5693 30.0772 64.5407 31.2845 64.5407 31.7472C64.5407 32.6937 64.5407 33.538 64.6457 34.7147C64.8294 36.7357 65.6955 37.2986 66.7191 37.2986C67.5698 37.2986 68.084 36.911 68.4714 36.619Z" fill="#007E4F"/>
<path d="M92.6244 25.633C93.1755 25.633 93.4118 25.7865 93.4118 26.0935C93.4118 26.3708 93.2068 26.4982 92.8992 26.6895C92.6675 26.8335 92.3776 27.0137 92.0732 27.3215C91.3908 27.9866 90.9971 28.8564 90.6034 29.9053L87.2438 38.9614C87.1913 39.1149 87.1126 39.1661 86.9288 39.1661H85.3803C85.2228 39.1661 85.1441 39.1149 85.0916 38.987L81.5483 28.8308C81.522 28.7541 81.4958 28.7285 81.4695 28.7285C81.4171 28.7285 81.3908 28.7541 81.3646 28.8308L77.5063 38.9358C77.4276 39.1149 77.3488 39.1661 77.1651 39.1661H75.6428C75.4066 39.1661 75.3016 39.1149 75.2491 38.9358L72.3357 29.4192C72.0208 28.3959 71.6533 27.5005 71.2071 27.0912C71.0158 26.9048 70.7816 26.7939 70.5704 26.6939C70.2601 26.5469 69.9998 26.4236 69.9998 26.1191C69.9998 25.7098 70.341 25.633 70.8397 25.633H75.1441C75.5903 25.633 75.8528 25.7865 75.8528 26.0935C75.8528 26.3616 75.6406 26.4769 75.3942 26.6107C75.0527 26.7963 74.6454 27.0176 74.6454 27.7308C74.6454 28.1145 74.7504 28.6262 74.9866 29.4192L76.9814 35.9939C77.0076 36.0706 77.0339 36.1218 77.0864 36.1218C77.1388 36.1218 77.1651 36.0706 77.1913 35.9939L81.1283 25.633C81.1808 25.5051 81.2596 25.454 81.4171 25.454H82.8344C83.0181 25.454 83.0706 25.5051 83.1231 25.633L86.7451 35.9939C86.7714 36.0706 86.7976 36.1474 86.8501 36.1474C86.9026 36.1474 86.9288 36.0706 86.9551 35.9939C87.2176 35.3031 88.005 33.0775 88.5824 31.389C89.1336 29.7518 89.4485 28.7285 89.4485 28.0122C89.4485 27.1549 88.9858 26.89 88.6045 26.6718C88.3372 26.5188 88.1099 26.3887 88.1099 26.0935C88.1099 25.7609 88.4512 25.633 88.9236 25.633H92.6244Z" fill="#007E4F"/>
<path d="M98.5077 34.5101V26.0168C98.5077 25.5563 98.2715 25.3516 97.9565 25.3516C97.7991 25.3516 97.6416 25.4028 97.4578 25.4795C96.6704 25.8121 95.9355 26.0168 94.9644 26.2214C94.3345 26.3493 94.2295 26.554 94.2295 26.8098C94.2295 27.0656 94.492 27.1936 94.8594 27.3215C95.2531 27.4494 95.5681 27.6029 95.7256 27.8587C95.988 28.268 95.988 28.8564 95.988 29.9564V34.5101C95.988 35.7636 95.9355 36.6078 95.6731 37.1195C95.4612 37.5325 95.1224 37.7436 94.8387 37.9205C94.56 38.0941 94.3345 38.2347 94.3345 38.5009C94.3345 38.8591 94.6495 38.987 95.0432 38.987H99.4263C99.82 38.987 100.161 38.8591 100.161 38.5009C100.161 38.2409 99.9584 38.1187 99.6955 37.9604C99.4151 37.7915 99.0665 37.5815 98.8227 37.1195C98.5602 36.6078 98.5077 35.7892 98.5077 34.5101Z" fill="#007E4F"/>
<path fill-rule="evenodd" clip-rule="evenodd" d="M112.961 25.326C113.644 25.326 114.038 25.7354 114.038 26.4005C114.038 27.2703 113.408 27.7052 112.305 27.7052C112.174 27.7052 111.912 27.6796 111.912 27.6796C112.384 28.4215 112.541 29.3169 112.541 30.0332C112.541 32.7705 110.52 34.7403 107.528 34.945C107.393 34.9544 107.257 34.9619 107.123 34.9693L107.122 34.9693C106.16 35.0223 105.271 35.0712 105.271 35.7892C105.271 36.3008 105.796 36.5311 107.108 36.659C107.539 36.699 108.018 36.7234 108.52 36.7489C109.303 36.7887 110.141 36.8313 110.94 36.9404C112.804 37.2218 113.88 38.2451 113.88 39.7033C113.88 42.4918 110.967 43.9244 107.135 43.9244C104.825 43.9244 103.04 43.4639 102.095 42.6708C101.413 42.1336 101.098 41.4173 101.098 40.7522C101.098 39.2684 102.463 38.5521 103.145 38.5521C103.539 38.5521 103.775 38.7312 103.775 38.987C103.775 39.1047 103.709 39.2262 103.629 39.376C103.498 39.6168 103.329 39.9307 103.329 40.4196C103.329 42.0824 105.507 42.6708 107.476 42.6708C109.917 42.6708 111.754 41.7755 111.754 40.4452C111.754 39.5242 110.993 39.1405 109.471 39.0126C109.071 38.9787 108.623 38.9561 108.159 38.9326C107.219 38.8851 106.21 38.8341 105.402 38.68C103.828 38.3986 103.066 37.5288 103.066 36.5823C103.066 35.431 104.169 34.7147 104.72 34.5357C104.799 34.5101 104.799 34.4845 104.799 34.4589C104.799 34.4333 104.772 34.4078 104.72 34.3822C103.145 33.6403 102.017 32.1821 102.017 30.2123C102.017 27.5517 104.221 25.3516 107.24 25.3516C108.809 25.3516 109.799 25.8934 110.464 26.2572C110.8 26.4411 111.053 26.5796 111.255 26.5796C111.611 26.5796 111.758 26.3232 111.919 26.0423C112.114 25.7021 112.329 25.326 112.961 25.326ZM109.943 30.5448C109.943 28.9331 109.103 26.6052 107.108 26.6052C105.507 26.6052 104.641 27.9866 104.641 29.6495C104.641 31.2611 105.402 33.6659 107.476 33.6659C109.103 33.6659 109.943 32.2333 109.943 30.5448Z" fill="#007E4F"/>
<path d="M120.687 38.35C118.087 38.35 115.762 37.15 115.237 34.8L117.462 34.075C117.787 35.35 118.687 36.425 120.712 36.425C122.437 36.425 123.362 35.8 123.362 34.7C123.362 33.825 122.837 33.2 121.137 32.875L119.637 32.6C117.512 32.175 115.737 31.375 115.737 29C115.737 26.775 117.837 25.25 120.412 25.25C123.487 25.25 124.962 26.825 125.462 28.4L123.387 29.2C123.087 28.35 122.337 27.125 120.387 27.125C118.737 27.125 117.987 27.9 117.987 28.775C117.987 29.575 118.362 30.05 120.087 30.375L121.562 30.65C122.987 30.95 125.737 31.75 125.737 34.5C125.737 36.85 123.887 38.35 120.687 38.35ZM132.242 38C130.192 38 129.117 37 129.117 34.95V27.55H126.292V25.6H129.117V21.725H131.467V25.6H134.817V27.55H131.467V34.75C131.467 35.6 131.842 35.975 132.692 35.975H135.292V38H132.242ZM140.402 38.35C137.977 38.35 136.402 37 136.402 34.8C136.402 31.375 140.177 30.225 144.202 29.9V29.525C144.202 28.1 143.427 27.225 141.602 27.225C139.427 27.225 138.727 28.5 138.402 29.45L136.152 28.725C136.552 27.025 138.327 25.25 141.602 25.25C144.952 25.25 146.552 26.925 146.552 29.6V35.275C146.552 35.85 146.702 36 147.277 36H148.552V38H146.752C144.952 38 144.602 37.175 144.452 36.125C143.577 37.475 142.377 38.35 140.402 38.35ZM141.027 36.425C142.602 36.425 144.202 35.35 144.202 32.875V31.6C141.302 31.9 138.827 32.625 138.827 34.6C138.827 35.725 139.552 36.425 141.027 36.425ZM152.126 42.875C149.701 42.875 148.826 41.825 148.826 40.375C148.826 39.125 149.701 38.225 150.426 37.775C149.726 37.35 149.326 36.75 149.326 35.75C149.326 34.525 150.326 33.675 151.176 33.125C150.451 32.475 149.801 31.35 149.801 29.875C149.801 27.25 151.901 25.25 154.801 25.25C157.101 25.25 158.476 26.475 159.051 27.45C159.276 26.375 159.826 25.6 161.101 25.6H162.376V27.55H161.351C160.301 27.55 159.901 27.8 159.801 29.225L159.751 29.825C159.526 32.625 157.601 34.425 154.826 34.425C153.976 34.425 153.176 34.325 152.476 33.95C151.801 34.225 151.376 34.675 151.376 35.125C151.376 35.525 151.626 35.925 152.476 35.925H157.851C160.276 35.925 161.851 37.325 161.851 39.4C161.851 41.725 160.051 42.875 157.901 42.875H152.126ZM154.826 32.575C156.451 32.575 157.501 31.5 157.501 29.85C157.501 28.225 156.451 27.1 154.826 27.1C153.201 27.1 152.151 28.225 152.151 29.85C152.151 31.5 153.201 32.575 154.826 32.575ZM152.776 40.875H157.601C158.601 40.875 159.476 40.6 159.476 39.425C159.476 38.25 158.601 38 157.601 38H151.801C151.401 38.25 150.901 38.8 150.901 39.575C150.901 40.575 151.576 40.875 152.776 40.875ZM164.071 38V25.6H166.371V28.225C166.796 27.275 168.021 25.425 170.496 25.425C171.021 25.425 171.371 25.475 171.646 25.55V27.95C171.246 27.9 170.821 27.85 170.321 27.85C167.571 27.85 166.421 29.5 166.421 32.425V38H164.071ZM176.457 38.35C174.032 38.35 172.457 37 172.457 34.8C172.457 31.375 176.232 30.225 180.257 29.9V29.525C180.257 28.1 179.482 27.225 177.657 27.225C175.482 27.225 174.782 28.5 174.457 29.45L172.207 28.725C172.607 27.025 174.382 25.25 177.657 25.25C181.007 25.25 182.607 26.925 182.607 29.6V35.275C182.607 35.85 182.757 36 183.332 36H184.607V38H182.807C181.007 38 180.657 37.175 180.507 36.125C179.632 37.475 178.432 38.35 176.457 38.35ZM177.082 36.425C178.657 36.425 180.257 35.35 180.257 32.875V31.6C177.357 31.9 174.882 32.625 174.882 34.6C174.882 35.725 175.607 36.425 177.082 36.425ZM186.082 38V25.6H188.357V27.475C188.882 26.55 189.982 25.25 192.107 25.25C193.907 25.25 195.307 26.225 195.957 27.825C196.482 26.7 197.632 25.25 200.107 25.25C202.857 25.25 204.407 26.825 204.407 29.775V38H202.032V30.425C202.032 28.15 201.007 27.325 199.432 27.325C196.457 27.325 196.382 30.45 196.382 32.15V38H194.082V30.425C194.082 28.15 193.032 27.325 191.457 27.325C188.557 27.325 188.432 30.45 188.432 32.15V38H186.082Z" fill="#007E4F"/>
<path fill-rule="evenodd" clip-rule="evenodd" d="M0.0505508 0.46064C0.0505508 0.46064 -1.05771 28.3193 7.10411 39.9792C15.2659 51.6391 26.8684 54.096 33.8643 49.4321C40.8603 44.7681 36.6382 36.4131 36.6382 36.4131C36.6382 36.4131 44.7179 41.1949 50.6543 32.2907C53.1235 28.587 53.6597 24.0714 52.1851 19.6404C50.0753 28.3849 44.0928 33.9739 41.5851 31.4662C40.2352 30.1163 41.4067 29.2608 43.3071 27.873C45.9484 25.9441 49.9978 22.9869 50.6419 16.245C47.9437 11.6055 42.9115 7.32907 35.4493 4.52067C39.084 15.8965 33.53 24.5059 30.1401 22.472C28.6681 21.5888 29.4964 19.9601 30.7194 17.5552C32.3484 14.3521 34.6778 9.7721 33.2046 3.74255C27.2312 1.81741 21.4165 0.832393 16.3679 0.367116C19.9844 4.40751 20.3799 9.14747 16.8507 10.0298C15.1747 10.4488 15.2356 9.6084 15.3511 8.0153C15.4863 6.15023 15.6963 3.25351 13.2816 0.138146C5.41194 -0.305287 0.0505508 0.46064 0.0505508 0.46064ZM17.1246 49.2235C18.9469 50.2027 20.7863 50.8782 22.5879 51.2642C30.5611 49.3534 35.6728 43.7286 32.5161 42.1845C30.7163 41.3042 29.976 42.1911 28.7971 43.6038C27.1443 45.5841 24.6294 48.5975 17.1246 49.2235ZM3.90563 33.461C3.74508 33.0044 3.59103 32.54 3.44321 32.0688C10.8263 34.7325 15.5889 32.2561 18.6077 30.6864C20.6599 29.6194 21.9062 28.9714 22.6221 30.6417C24.3441 34.6598 12.454 39.802 3.90563 33.461ZM0.649982 17.2611C8.23806 27.6332 16.5741 24.3172 15.2018 21.5725C14.6845 20.5379 13.6804 20.6393 12.2658 20.7821C9.60299 21.0509 5.48567 21.4666 0.423123 14.7281C0.488663 15.5572 0.563848 16.4034 0.649982 17.2611ZM4.48374 9.20553L9.43061 15.8014C9.43061 15.8014 6.95717 16.6258 5.30802 13.3277C3.65886 10.0296 4.48374 9.20553 4.48374 9.20553Z" fill="#74BD97"/>
</svg>
