<svg width="16" height="15" viewBox="0 0 16 15" fill="none" xmlns="http://www.w3.org/2000/svg">
<path fill-rule="evenodd" clip-rule="evenodd" d="M5.51301 0.840009C5.5023 0.849529 5.49157 0.859079 5.4808 0.868649L2.13595 3.84185C1.51183 4.39659 0.99445 4.85646 0.63921 5.27392C0.26585 5.71268 0 6.18505 0 6.76958C0 7.3541 0.26585 7.8265 0.6392 8.2652C0.99444 8.6827 1.51182 9.1426 2.13595 9.6973L5.4808 12.6705C5.49157 12.6801 5.50231 12.6896 5.51301 12.6992C5.78337 12.9395 6.03569 13.1639 6.25368 13.3078C6.46774 13.4492 6.857 13.6545 7.29306 13.4586C7.7291 13.2628 7.8343 12.8355 7.8709 12.5816C7.9081 12.3231 7.9081 11.9854 7.908 11.6236C7.908 11.6093 7.908 11.5949 7.908 11.5805V10.2734C9.1176 10.3568 10.3433 10.678 11.4155 11.2005C12.6763 11.8148 13.6832 12.6859 14.2296 13.7268C14.3633 13.9814 14.6534 14.1119 14.9326 14.0431C15.2118 13.9742 15.408 13.7238 15.408 13.4362C15.408 9.5021 14.2569 6.94047 12.6109 5.36562C11.1762 3.99291 9.4277 3.42964 7.908 3.31176V1.95862C7.908 1.94422 7.908 1.92985 7.908 1.91552C7.9081 1.55375 7.9081 1.2161 7.8709 0.957559C7.8343 0.703659 7.7291 0.276339 7.29306 0.0805186C6.857 -0.115301 6.46774 0.0899986 6.25368 0.231329C6.03569 0.375259 5.78337 0.599619 5.51301 0.840009ZM6.65544 1.50038C6.56122 1.58113 6.44872 1.68072 6.31126 1.80291L3.00101 4.74535C2.33344 5.33875 1.883 5.74108 1.59119 6.084C1.31095 6.41334 1.25 6.60567 1.25 6.76958C1.25 6.93349 1.31094 7.1258 1.59118 7.4552C1.883 7.7981 2.33343 8.2004 3.00101 8.7938L6.31126 11.7363C6.44872 11.8584 6.56122 11.958 6.65544 12.0388C6.65769 11.9147 6.658 11.7645 6.658 11.5805V9.6267C6.658 9.2815 6.93782 9.0017 7.283 9.0017C8.8768 9.0017 10.533 9.38 11.963 10.0768C12.7287 10.4499 13.4415 10.9205 14.0464 11.4836C13.7391 8.9444 12.831 7.3062 11.7468 6.26879C10.3967 4.97706 8.691 4.53744 7.283 4.53744C6.93782 4.53744 6.658 4.25762 6.658 3.91244V1.95862C6.658 1.7747 6.65769 1.62445 6.65544 1.50038Z" fill="#007E4F"/>
</svg>
