<svg width="18" height="18" viewBox="0 0 18 18" fill="none" xmlns="http://www.w3.org/2000/svg">
<path d="M6.5 3.37537C6.15482 3.37537 5.875 3.65519 5.875 4.00037C5.875 4.34554 6.15482 4.62537 6.5 4.62537H11.5C11.8452 4.62537 12.125 4.34554 12.125 4.00037C12.125 3.65519 11.8452 3.37537 11.5 3.37537H6.5Z" fill="#007E4F"/>
<path fill-rule="evenodd" clip-rule="evenodd" d="M8.95209 0.0419924C7.22495 0.0419824 5.8643 0.0419723 4.80107 0.186472C3.70935 0.334842 2.83841 0.645902 2.15403 1.33769C1.47058 2.02855 1.1641 2.90617 1.01775 4.0065C0.87498 5.07992 0.87499 6.45418 0.875 8.20122V12.4495C0.87499 13.7058 0.87498 14.7005 0.95501 15.4493C1.03409 16.1894 1.20373 16.857 1.6882 17.3035C2.07688 17.6617 2.56842 17.8875 3.09304 17.9476C3.74927 18.0226 4.36199 17.7093 4.96557 17.2818C5.57636 16.8491 6.3173 16.1938 7.25212 15.3669L7.28254 15.34C7.71593 14.9567 8.00935 14.698 8.25416 14.519C8.49076 14.346 8.63522 14.2834 8.75698 14.2589C8.91743 14.2266 9.0826 14.2266 9.243 14.2589C9.3648 14.2834 9.5092 14.346 9.7458 14.519C9.9906 14.698 10.2841 14.9567 10.7175 15.34L10.7479 15.367C11.6827 16.1938 12.4237 16.8491 13.0344 17.2818C13.638 17.7093 14.2507 18.0226 14.907 17.9476C15.4316 17.8875 15.9231 17.6617 16.3118 17.3035C16.7963 16.857 16.9659 16.1894 17.045 15.4493C17.125 14.7005 17.125 13.7058 17.125 12.4495V8.2012C17.125 6.45418 17.125 5.07991 16.9823 4.0065C16.8359 2.90617 16.5294 2.02855 15.846 1.33769C15.1616 0.645902 14.2907 0.334842 13.1989 0.186472C12.1357 0.0419723 10.7751 0.0419824 9.0479 0.0419924H8.95209ZM3.04267 2.2168C3.45664 1.79834 4.01876 1.55428 4.9694 1.42508C5.93871 1.29335 7.21438 1.29199 9 1.29199C10.7856 1.29199 12.0613 1.29335 13.0306 1.42508C13.9812 1.55428 14.5434 1.79834 14.9573 2.2168C15.3722 2.63619 15.6149 3.20715 15.7432 4.17131C15.8737 5.15276 15.875 6.44385 15.875 8.24826V12.4094C15.875 13.7147 15.8741 14.6421 15.8021 15.3165C15.7282 16.0076 15.592 16.267 15.4647 16.3843C15.2699 16.5639 15.0248 16.6759 14.7649 16.7057C14.5985 16.7247 14.3196 16.6603 13.757 16.2617C13.2081 15.873 12.5176 15.2634 11.5456 14.4037L11.5238 14.3844C11.1177 14.0252 10.781 13.7274 10.4837 13.51C10.1728 13.2827 9.8594 13.108 9.4899 13.0335C9.1665 12.9684 8.83352 12.9684 8.51015 13.0335C8.14064 13.108 7.82715 13.2827 7.51633 13.51C7.21902 13.7274 6.88226 14.0252 6.47621 14.3844L6.45439 14.4037C5.48239 15.2634 4.79189 15.873 4.24304 16.2617C3.68038 16.6603 3.40151 16.7247 3.23515 16.7057C2.97516 16.6759 2.73014 16.5639 2.53531 16.3843C2.40803 16.267 2.27179 16.0076 2.19793 15.3165C2.12587 14.6421 2.125 13.7147 2.125 12.4094V8.24826C2.125 6.44385 2.1263 5.15276 2.25684 4.17131C2.38508 3.20715 2.62777 2.63619 3.04267 2.2168Z" fill="#007E4F"/>
</svg>
