<svg width="17" height="18" viewBox="0 0 17 18" fill="none" xmlns="http://www.w3.org/2000/svg">
<path d="M5.625 3.33337C5.27982 3.33337 5 3.61319 5 3.95837C5 4.30354 5.27982 4.58337 5.625 4.58337H10.625C10.9702 4.58337 11.25 4.30354 11.25 3.95837C11.25 3.61319 10.9702 3.33337 10.625 3.33337H5.625Z" fill="#007E4F"/>
<path fill-rule="evenodd" clip-rule="evenodd" d="M8.07709 1.66375e-07C6.34995 -9.83362e-06 4.9893 -1.98483e-05 3.92607 0.14448C2.83435 0.29285 1.96341 0.60391 1.27903 1.2957C0.59558 1.98656 0.2891 2.86418 0.14275 3.96451C-1.97589e-05 5.03793 -9.77647e-06 6.41219 2.23531e-07 8.15923V12.4075C-9.77647e-06 13.6638 -1.97217e-05 14.6585 0.0800103 15.4073C0.15909 16.1474 0.32873 16.815 0.8132 17.2615C1.20188 17.6197 1.69342 17.8455 2.21804 17.9056C2.87427 17.9806 3.48699 17.6673 4.09057 17.2398C4.70136 16.8071 5.4423 16.1518 6.37712 15.3249L6.40754 15.298C6.84093 14.9147 7.13435 14.656 7.37916 14.477C7.61576 14.304 7.76022 14.2414 7.88198 14.2169C8.04243 14.1846 8.2076 14.1846 8.368 14.2169C8.4898 14.2414 8.6342 14.304 8.8708 14.477C9.1156 14.656 9.4091 14.9147 9.8425 15.298L9.8729 15.325C10.8077 16.1518 11.5487 16.8071 12.1594 17.2398C12.763 17.6673 13.3757 17.9806 14.032 17.9056C14.5566 17.8455 15.0481 17.6197 15.4368 17.2615C15.9213 16.815 16.0909 16.1474 16.17 15.4073C16.25 14.6585 16.25 13.6638 16.25 12.4075V8.15921C16.25 6.41219 16.25 5.03792 16.1073 3.96451C15.9609 2.86418 15.6544 1.98656 14.971 1.2957C14.2866 0.60391 13.4157 0.29285 12.3239 0.14448C11.2607 -1.98483e-05 9.9001 -9.83362e-06 8.1729 1.66375e-07H8.07709ZM2.16767 2.17481C2.58164 1.75635 3.14376 1.51229 4.0944 1.38309C5.06371 1.25136 6.33938 1.25 8.125 1.25C9.9106 1.25 11.1863 1.25136 12.1556 1.38309C13.1062 1.51229 13.6684 1.75635 14.0823 2.17481C14.4972 2.5942 14.7399 3.16516 14.8682 4.12932C14.9987 5.11077 15 6.40186 15 8.20627V12.3674C15 13.6727 14.9991 14.6001 14.9271 15.2745C14.8532 15.9656 14.717 16.225 14.5897 16.3423C14.3949 16.5219 14.1498 16.6339 13.8899 16.6637C13.7235 16.6827 13.4446 16.6183 12.882 16.2197C12.3331 15.831 11.6426 15.2214 10.6706 14.3617L10.6488 14.3424C10.2427 13.9832 9.906 13.6854 9.6087 13.468C9.2978 13.2407 8.9844 13.066 8.6149 12.9915C8.2915 12.9264 7.95852 12.9264 7.63515 12.9915C7.26564 13.066 6.95215 13.2407 6.64133 13.468C6.34402 13.6854 6.00726 13.9832 5.60121 14.3424L5.57939 14.3617C4.60739 15.2214 3.91689 15.831 3.36804 16.2197C2.80538 16.6183 2.52651 16.6827 2.36015 16.6637C2.10016 16.6339 1.85514 16.5219 1.66031 16.3423C1.53303 16.225 1.39679 15.9656 1.32293 15.2745C1.25087 14.6001 1.25 13.6727 1.25 12.3674V8.20627C1.25 6.40186 1.2513 5.11077 1.38184 4.12932C1.51008 3.16516 1.75277 2.5942 2.16767 2.17481Z" fill="#007E4F"/>
</svg>
