<svg width="15" height="17" viewBox="0 0 15 17" fill="none" xmlns="http://www.w3.org/2000/svg">
<path fill-rule="evenodd" clip-rule="evenodd" d="M15 7.58127V11.7424C15 14.3229 15 15.6131 14.3882 16.1769C14.0965 16.4458 13.7282 16.6147 13.3359 16.6596C12.5133 16.7537 11.5527 15.9041 9.6315 14.2049C8.7823 13.4537 8.3577 13.0782 7.8664 12.9792C7.6245 12.9305 7.37548 12.9305 7.13356 12.9792C6.64229 13.0782 6.21768 13.4537 5.36847 14.2049C3.44728 15.9041 2.48668 16.7537 1.6641 16.6596C1.27179 16.6147 0.90351 16.4458 0.61176 16.1769C-1.19209e-07 15.6131 0 14.3229 0 11.7424V7.58127C0 4.00743 0 2.22051 1.09835 1.11025C2.1967 1.19209e-07 3.96447 0 7.5 0C11.0355 0 12.8033 1.19209e-07 13.9016 1.11025C15 2.22051 15 4.00743 15 7.58127ZM4.375 3.33334C4.375 2.98816 4.65482 2.70834 5 2.70834H10C10.3452 2.70834 10.625 2.98816 10.625 3.33334C10.625 3.67852 10.3452 3.95834 10 3.95834H5C4.65482 3.95834 4.375 3.67852 4.375 3.33334Z" fill="#007E4F"/>
</svg>
