<svg width="22" height="22" viewBox="0 0 22 22" fill="none" xmlns="http://www.w3.org/2000/svg">
<path fill-rule="evenodd" clip-rule="evenodd" d="M17.5 0.25C17.9142 0.25 18.25 0.58579 18.25 1V3.75H21C21.4142 3.75 21.75 4.08579 21.75 4.5C21.75 4.91421 21.4142 5.25 21 5.25H18.25V8C18.25 8.41421 17.9142 8.75 17.5 8.75C17.0858 8.75 16.75 8.41421 16.75 8V5.25H14C13.5858 5.25 13.25 4.91421 13.25 4.5C13.25 4.08579 13.5858 3.75 14 3.75H16.75V1C16.75 0.58579 17.0858 0.25 17.5 0.25Z" fill="#007E4F"/>
<path fill-rule="evenodd" clip-rule="evenodd" d="M11 0.25H10.9426C8.63423 0.24999 6.82519 0.24998 5.41371 0.43975C3.96897 0.63399 2.82895 1.03933 1.93414 1.93414C1.03933 2.82895 0.63399 3.96897 0.43975 5.41371C0.24998 6.82519 0.24999 8.63423 0.25 10.9426V11.0574C0.24999 13.3658 0.24998 15.1748 0.43975 16.5863C0.63399 18.031 1.03933 19.1711 1.93414 20.0659C2.82895 20.9607 3.96897 21.366 5.41371 21.5603C6.82519 21.75 8.63423 21.75 10.9426 21.75H11.0574C13.3658 21.75 15.1748 21.75 16.5863 21.5603C18.031 21.366 19.1711 20.9607 20.0659 20.0659C20.9607 19.1711 21.366 18.031 21.5603 16.5863C21.75 15.1748 21.75 13.3658 21.75 11.0574V11C21.75 10.5858 21.4142 10.25 21 10.25C20.5858 10.25 20.25 10.5858 20.25 11C20.25 13.3782 20.2484 15.0864 20.0736 16.3864C20.0667 16.4377 20.0596 16.4882 20.0522 16.5378L17.2782 14.0412C15.9788 12.8718 14.0437 12.7553 12.6134 13.7605L12.3152 13.9701C11.8182 14.3193 11.1421 14.2608 10.7126 13.8313L6.42282 9.5415C5.28741 8.40612 3.46613 8.34547 2.25771 9.4028L1.75098 9.8462C1.75552 8.05395 1.78124 6.69302 1.92637 5.61358C2.09825 4.33517 2.42514 3.56445 2.9948 2.9948C3.56445 2.42514 4.33517 2.09825 5.61358 1.92637C6.91356 1.75159 8.62177 1.75 11 1.75C11.4142 1.75 11.75 1.41421 11.75 1C11.75 0.58579 11.4142 0.25 11 0.25ZM1.92637 16.3864C2.09825 17.6648 2.42514 18.4355 2.9948 19.0052C3.56445 19.5749 4.33517 19.9018 5.61358 20.0736C6.91356 20.2484 8.62177 20.25 11 20.25C13.3782 20.25 15.0865 20.2484 16.3864 20.0736C17.6648 19.9018 18.4356 19.5749 19.0052 19.0052C19.2487 18.7617 19.4479 18.4814 19.6096 18.1404C19.5707 18.1166 19.5334 18.089 19.4983 18.0574L16.2748 15.1562C15.4951 14.4545 14.334 14.3846 13.4759 14.9877L13.1777 15.1973C12.0843 15.9657 10.5968 15.8369 9.65189 14.8919L5.36215 10.6022C4.78514 10.0252 3.85958 9.9944 3.24546 10.5317L1.75038 11.8399C1.75296 13.7884 1.77289 15.2448 1.92637 16.3864Z" fill="#007E4F"/>
</svg>
