<svg width="22" height="22" viewBox="0 0 22 22" fill="none" xmlns="http://www.w3.org/2000/svg">
<path fill-rule="evenodd" clip-rule="evenodd" d="M9.94509 0.250001H12.0549C13.4225 0.249981 14.5248 0.249961 15.3918 0.366521C16.2919 0.487541 17.0497 0.746431 17.6517 1.34835C18.0519 1.74855 18.3004 2.2177 18.4576 2.75175C18.6692 2.75503 18.8458 2.76426 19.0084 2.79001C20.3991 3.01027 21.4897 4.10094 21.71 5.49159C21.7502 5.74548 21.7501 6.03358 21.75 6.43528C21.75 6.45653 21.75 6.4781 21.75 6.5V15.5C21.75 15.5219 21.75 15.5435 21.75 15.5647C21.7501 15.9664 21.7502 16.2545 21.71 16.5084C21.4897 17.8991 20.3991 18.9897 19.0084 19.21C18.8458 19.2357 18.6692 19.245 18.4576 19.2482C18.3004 19.7823 18.0519 20.2514 17.6517 20.6517C17.0497 21.2536 16.2919 21.5125 15.3918 21.6335C14.5248 21.75 13.4225 21.75 12.0549 21.75H9.94509C8.57753 21.75 7.47521 21.75 6.60824 21.6335C5.70813 21.5125 4.95026 21.2536 4.34834 20.6517C3.94814 20.2514 3.69957 19.7823 3.54235 19.2482C3.33082 19.245 3.15419 19.2357 2.99158 19.21C1.60093 18.9897 0.510261 17.8991 0.290001 16.5084C0.249791 16.2545 0.249871 15.9664 0.249981 15.5647C0.249981 15.5435 0.249991 15.5219 0.249991 15.5V6.5C0.249991 6.4781 0.249981 6.45652 0.249981 6.43527C0.249871 6.03357 0.249791 5.74548 0.290001 5.49159C0.510261 4.10094 1.60093 3.01027 2.99158 2.79001C3.15419 2.76426 3.33083 2.75503 3.54235 2.75175C3.69957 2.2177 3.94814 1.74855 4.34834 1.34835C4.95026 0.746431 5.70813 0.487541 6.60824 0.366521C7.47521 0.249961 8.57753 0.249981 9.94509 0.250001ZM3.3019 4.26229C3.27392 4.26483 3.24939 4.26788 3.22623 4.27155C2.47742 4.39015 1.89014 4.97743 1.77154 5.72624C1.75232 5.84758 1.74999 6.00684 1.74999 6.5V15.5C1.74999 15.9932 1.75232 16.1524 1.77154 16.2738C1.89014 17.0226 2.47742 17.6099 3.22623 17.7285C3.24939 17.7321 3.27392 17.7352 3.3019 17.7377C3.24996 16.9893 3.24997 16.0995 3.24999 15.0549V13.8166V13.8151V6.94512C3.24997 5.90052 3.24996 5.01069 3.3019 4.26229ZM4.74999 14.1209V15C4.74999 16.4354 4.75158 17.4365 4.85314 18.1919C4.95179 18.9257 5.13224 19.3142 5.409 19.591C5.68576 19.8678 6.07433 20.0482 6.80811 20.1469C7.56346 20.2484 8.56457 20.25 9.99999 20.25H12C13.4354 20.25 14.4365 20.2484 15.1919 20.1469C15.9257 20.0482 16.3142 19.8678 16.591 19.591C16.743 19.439 16.8659 19.2533 16.9622 18.9952L15.0804 17.0092C14.577 16.478 13.8816 16.4416 13.3519 16.8781L13.1322 17.0591C12.2159 17.8142 10.9548 17.6658 10.1952 16.7751L7.03432 13.0687C6.68428 12.6583 6.18507 12.6485 5.82773 13.0152L4.74999 14.1209ZM17.2292 17.0961L16.1692 15.9775C15.1406 14.892 13.5546 14.7673 12.398 15.7205L12.1783 15.9016C11.9227 16.1121 11.5897 16.0987 11.3365 15.8018L8.17564 12.0954C7.2639 11.0263 5.73912 10.957 4.75354 11.9682L4.74999 11.9719V7C4.74999 5.56458 4.75158 4.56347 4.85314 3.80812C4.95179 3.07435 5.13224 2.68577 5.409 2.40901C5.68576 2.13225 6.07434 1.9518 6.80811 1.85315C7.56346 1.75159 8.56457 1.75 9.99999 1.75H12C13.4354 1.75 14.4365 1.75159 15.1919 1.85315C15.9257 1.9518 16.3142 2.13225 16.591 2.40901C16.8678 2.68577 17.0482 3.07435 17.1469 3.80812C17.2484 4.56347 17.25 5.56458 17.25 7V15C17.25 15.8326 17.2495 16.519 17.2292 17.0961ZM18.6981 17.7377C18.7261 17.7352 18.7506 17.7321 18.7738 17.7285C19.5226 17.6099 20.1099 17.0226 20.2285 16.2738C20.2477 16.1524 20.25 15.9932 20.25 15.5V6.5C20.25 6.00684 20.2477 5.84758 20.2285 5.72624C20.1099 4.97743 19.5226 4.39015 18.7738 4.27155C18.7506 4.26788 18.7261 4.26483 18.6981 4.26229C18.75 5.01069 18.75 5.90053 18.75 6.94513V15.0549C18.75 16.0995 18.75 16.9893 18.6981 17.7377ZM13.5 4.75C13.0858 4.75 12.75 5.08579 12.75 5.5C12.75 5.91421 13.0858 6.25 13.5 6.25C13.9142 6.25 14.25 5.91421 14.25 5.5C14.25 5.08579 13.9142 4.75 13.5 4.75ZM11.25 5.5C11.25 4.25736 12.2574 3.25 13.5 3.25C14.7426 3.25 15.75 4.25736 15.75 5.5C15.75 6.74264 14.7426 7.75 13.5 7.75C12.2574 7.75 11.25 6.74264 11.25 5.5Z" fill="#007E4F"/>
</svg>
